<svg xmlns="http://www.w3.org/2000/svg" width="18" zoomAndPan="magnify" viewBox="0 0 375 375" height="18" preserveAspectRatio="xMidYMid meet"><defs><clipPath ><path d="M41.484 27H288v348H41.484zm0 0" clip-rule="nonzero"/></clipPath><clipPath id="B"><path d="M-5-5h385v385H-5zm266.879 67.273c4.523 1.625 8.094 3.234 9.98 5.609 2.152 2.715 2.348 6.387 3.547 11.445.336 1.418.793 3.227 1.348 4.867.684 2.027 1.809 3.109 2.961 3.379 1.617.383 3.297-.82 3.922-3.23.828-3.187 1.996-8.777 2.93-13.992 1.891-10.621.019-16.121-8.859-22.297-6.777-4.715-16.004-7.867-23.031-13.238-1.676-1.285-3.16-2.711-4.937-3.91-4.789-3.234-11.684-3.937-18.691-2.641-10.336 1.906-16.648 6.5-21.426 12.719-7.586 9.875-9.812 23.953-6.984 38.688 6.121 31.918 33.504 50.82 47.828 74.695 1.801 3.004 6.172 12.086 6.766 21.457.426 6.766-1.23 15.684-8.367 18.344-4.836 1.797-9.371-2.875-11.586-10.465-5.539-18.996-8.156-27.668-25.602-39.418-31.121-20.965-77.902-13.434-108.082 5.375-13.07 8.145-24.73 18.84-34.199 30.883-16.715 21.281-27.852 51.285-27.852 78.504 0 5.258.48 9.02 2.219 2.281 2.285-8.848 5.637-17.078 10.25-24.352 3.328-5.246 6.965-10.078 13.016-13.859 2.59-1.617 5.664-3.25 6.277-2.84.262.18-.793 1.109-2.266 2.488-6.402 5.984-11.176 15.984-13.199 24.355-.73 3.02-.121 2.836 1.379.371 1.914-3.145 5.195-8.344 9.734-12.672 4.156-3.957 9.676-7.195 14.324-7.91 12.371-1.906 30.445 7.078 45.336 16.297 6.488 4.016 5.941 3.832 4.746 11.371-.437 2.762-.281 5.25.691 7.348.23.504.277.563-.043 1.047l-29.461 44.156c-3.93 5.895-13.344 11.898-10.332 19.227.969 2.352 3.219 3.641 7.961 3.918 16.266.953 41.387 9.586 61.762 17.012l-.367 3.551c-.605 5.898-1.371 7.102-2.273 11.949-.449 2.426-.219 4.863.43 7.277 1.184 4.402 1.395 5.484 2.203 9.945 3.125 27.195 3.195 58.715 5.137 86.207.254 3.637-.695 7.027-2.152 9.348-1.891 3.012.66 6.023 3.82 6.969 8.91 2.664 15.156 4.469 23.578 7.664l1.512.566c7.379 2.703 5.023.164 2.988-1.422-5.602-4.371-.719-6.238 4.117-6.203 2.902.019 5.438.172 7.801.367 6.027.5 5.363-.914.305-1.828-2.648-.48-6.301-1.008-8.414-2.812-1.332-1.141-1.207-1.984-.465-2.602 1-.828 3.109-1.242 4.273-1.398 2.203-.293 3.066-.434 2.973-.695-.078-.219-.684-.566-3.012-.789-1.855-.176-4.305-.281-6.496-.18-4.223.191-10.18 1.305-14.82.961-4.77-.352-8.422-2.516-9.375-10.227l-4.363-82.668c-.402-5.488-.246-6.539.035-10.98.133-2.137.09-4.555-.059-6.641-.406-5.656-.523-9.016-.215-13.734l9.219 3.379c7.535 2.73 12.813 5.477 15.516 12.691 2.461 6.578.523 14.969-1.051 21.711 0 0 1.992-1.047 3.926-1.926 4.203-1.91 5.785-.148 6.301 4.297.582 5.066 1.816 10.258 3.027 13.223 1.797 4.398 1.656 2.137 1.512-.977-.125-2.648-.262-6.699-.262-11.727 0-3.562.254-6.973.395-10.277.328-7.785.043-14.977-5.582-22.172-6.09-7.789-12.84-8.32-21.395-11.105l-11.035-3.641 6.477-57.594c.262-2.652.34-5.355 3.012-6.488 3.48-1.477 7.152-4.457 11.121-9.086 2.238-2.609 4.281-4.844 6.453-6.32 9.828-6.684 20.496-4.195 34.367-10.949 27.348-13.316 57.328-39.469 49.102-80.984-6.109-30.84-36.945-55.156-42.105-60.121-7.707-7.406-24.598-21.484-21.633-43.41 1.527-11.312 5.668-15.09 16.711-12.512 9.402 2.188 17.285 2.965 26.707 6.352zm-119.75 205.895l-31.508 44.18c-3.977 5.57-5.223 8.719 2.301 11.238l51.66 17.43 5.773-56.078c.082-.801.215-1.676.309-2.559.266-2.492.117-3.016-1.91-4.344-2.984-1.957-5.926-5.098-8.906-9.305-3.668-5.176-4.969-3.719-11.469-1.57-1.699.566-3.496.789-5.27.621-.449-.043-.711.012-.98.387"/></clipPath></defs><path fill="#fff" d="M187.5 0C83.945 0 0 83.945 0 187.5S83.945 375 187.5 375 375 291.055 375 187.5 291.055 0 187.5 0" clip-path="url(#B)"/></svg>
