<svg xmlns="http://www.w3.org/2000/svg" xmlns:xlink="http://www.w3.org/1999/xlink" width="400.052" height="66.425" viewBox="0 0 105.847 17.575"><defs><clipPath id="A"><path d="M-5-5h385v385H-5zm266.879 67.273c4.523 1.625 8.094 3.234 9.98 5.609 2.152 2.715 2.348 6.387 3.547 11.445.336 1.418.793 3.227 1.348 4.867.684 2.027 1.809 3.109 2.961 3.379 1.617.383 3.297-.82 3.922-3.23.828-3.187 1.996-8.777 2.93-13.992 1.891-10.621.019-16.121-8.859-22.297-6.777-4.715-16.004-7.867-23.031-13.238-1.676-1.285-3.16-2.711-4.937-3.91-4.789-3.234-11.684-3.937-18.691-2.641-10.336 1.906-16.648 6.5-21.426 12.719-7.586 9.875-9.812 23.953-6.984 38.688 6.121 31.918 33.504 50.82 47.828 74.695 1.801 3.004 6.172 12.086 6.766 21.457.426 6.766-1.23 15.684-8.367 18.344-4.836 1.797-9.371-2.875-11.586-10.465-5.539-18.996-8.156-27.668-25.602-39.418-31.121-20.965-77.902-13.434-108.082 5.375-13.07 8.145-24.73 18.84-34.199 30.883-16.715 21.281-27.852 51.285-27.852 78.504 0 5.258.48 9.02 2.219 2.281 2.285-8.848 5.637-17.078 10.25-24.352 3.328-5.246 6.965-10.078 13.016-13.859 2.59-1.617 5.664-3.25 6.277-2.84.262.18-.793 1.109-2.266 2.488-6.402 5.984-11.176 15.984-13.199 24.355-.73 3.02-.121 2.836 1.379.371 1.914-3.145 5.195-8.344 9.734-12.672 4.156-3.957 9.676-7.195 14.324-7.91 12.371-1.906 30.445 7.078 45.336 16.297 6.488 4.016 5.941 3.832 4.746 11.371-.437 2.762-.281 5.25.691 7.348.23.504.277.563-.043 1.047l-29.461 44.156c-3.93 5.895-13.344 11.898-10.332 19.227.969 2.352 3.219 3.641 7.961 3.918 16.266.953 41.387 9.586 61.762 17.012l-.367 3.551c-.605 5.898-1.371 7.102-2.273 11.949-.449 2.426-.219 4.863.43 7.277 1.184 4.402 1.395 5.484 2.203 9.945 3.125 27.195 3.195 58.715 5.137 86.207.254 3.637-.695 7.027-2.152 9.348-1.891 3.012.66 6.023 3.82 6.969 8.91 2.664 15.156 4.469 23.578 7.664l1.512.566c7.379 2.703 5.023.164 2.988-1.422-5.602-4.371-.719-6.238 4.117-6.203 2.902.019 5.438.172 7.801.367 6.027.5 5.363-.914.305-1.828-2.648-.48-6.301-1.008-8.414-2.812-1.332-1.141-1.207-1.984-.465-2.602 1-.828 3.109-1.242 4.273-1.398 2.203-.293 3.066-.434 2.973-.695-.078-.219-.684-.566-3.012-.789a49.17 49.17 0 0 0-6.496-.18c-4.223.191-10.18 1.305-14.82.961-4.77-.352-8.422-2.516-9.375-10.227l-4.363-82.668c-.402-5.488-.246-6.539.035-10.98.133-2.137.09-4.555-.059-6.641-.406-5.656-.523-9.016-.215-13.734l9.219 3.379c7.535 2.73 12.813 5.477 15.516 12.691 2.461 6.578.523 14.969-1.051 21.711 0 0 1.992-1.047 3.926-1.926 4.203-1.91 5.785-.148 6.301 4.297.582 5.066 1.816 10.258 3.027 13.223 1.797 4.398 1.656 2.137 1.512-.977-.125-2.648-.262-6.699-.262-11.727 0-3.562.254-6.973.395-10.277.328-7.785.043-14.977-5.582-22.172-6.09-7.789-12.84-8.32-21.395-11.105l-11.035-3.641 6.477-57.594c.262-2.652.34-5.355 3.012-6.488 3.48-1.477 7.152-4.457 11.121-9.086 2.238-2.609 4.281-4.844 6.453-6.32 9.828-6.684 20.496-4.195 34.367-10.949 27.348-13.316 57.328-39.469 49.102-80.984-6.109-30.84-36.945-55.156-42.105-60.121-7.707-7.406-24.598-21.484-21.633-43.41 1.527-11.312 5.668-15.09 16.711-12.512 9.402 2.188 17.285 2.965 26.707 6.352zm-119.75 205.895l-31.508 44.18c-3.977 5.57-5.223 8.719 2.301 11.238l51.66 17.43 5.773-56.078c.082-.801.215-1.676.309-2.559.266-2.492.117-3.016-1.91-4.344-2.984-1.957-5.926-5.098-8.906-9.305-3.668-5.176-4.969-3.719-11.469-1.57-1.699.566-3.496.789-5.27.621-.449-.043-.711.012-.98.387"/></clipPath><path id="B" d="M80.951 36.114q.402-.116 1.037-.212.635-.106 1.334-.106.709 0 1.175.191.476.18.751.519.275.339.392.804.116.466.116 1.037v3.143h-1.577v-2.953q0-.762-.201-1.08-.201-.318-.751-.318-.169 0-.36.021-.191.011-.339.032v4.297h-1.577z"/><path id="C" d="M88.529 38.527q0 1.323 1.069 1.323.243 0 .455-.064.212-.064.36-.148V37.12q-.116-.021-.275-.032-.159-.021-.37-.021-.624 0-.931.413-.307.413-.307 1.048zm3.461 2.265q0 1.365-.699 2.022-.688.667-2.138.667-.508 0-1.016-.095-.508-.085-.942-.233l.275-1.323q.37.148.773.233.413.085.931.085.677 0 .953-.296.286-.296.286-.762v-.201q-.254.116-.529.18-.265.053-.582.053-1.154 0-1.768-.677-.614-.688-.614-1.916 0-.614.191-1.111.191-.508.55-.868.37-.36.9-.55.529-.201 1.196-.201.286 0 .582.032.307.021.603.064.296.042.561.106.275.053.487.116z"/></defs><g transform="translate(-46.084 -29.183)" fill="#fff"><path d="M71.478 34.156h1.651v7.335h-1.651v-3.112h-2.773v3.112h-1.651v-7.335h1.651v2.805h2.773zm7.991 7.144q-.402.116-1.037.212-.635.106-1.334.106-.709 0-1.185-.191-.466-.191-.741-.529-.275-.349-.392-.826-.116-.476-.116-1.048v-3.101h1.577v2.911q0 .762.201 1.101.201.339.751.339.169 0 .36-.011.191-.021.339-.042v-4.297h1.577z"/><use xlink:href="#B"/><use xlink:href="#C"/><path d="M96.827 37.321q-.212-.053-.497-.106-.286-.064-.614-.064-.148 0-.36.032-.201.021-.307.053v4.255h-1.577V36.22q.423-.148.995-.275.582-.138 1.291-.138.127 0 .307.021.18.011.36.042.18.021.36.064.18.032.307.085zm6.382-1.397q-.476 1.609-.995 3.016-.519 1.408-1.132 2.731-.222.476-.445.804-.222.339-.487.55-.265.222-.603.318-.328.106-.773.106-.37 0-.688-.074-.307-.064-.508-.148l.275-1.259q.243.085.434.116.191.032.402.032.423 0 .646-.233.233-.222.392-.624-.54-1.058-1.08-2.371-.54-1.323-1.016-2.964h1.672q.106.413.243.9.148.476.307.974.159.487.318.953.169.466.318.847.138-.381.286-.847.148-.466.286-.953.148-.497.275-.974.138-.487.243-.9zm3.492 5.567v-7.335h4.911v1.387h-3.26v1.535h2.9v1.387h-2.9v3.027zm8.192.106q-.688-.011-1.122-.148-.423-.138-.677-.381-.243-.254-.339-.603-.085-.36-.085-.804v-6.128l1.577-.254v6.065q0 .212.032.381.032.169.116.286.095.116.265.191.169.074.455.095zm3.408-1.207q.233 0 .445-.011.212-.011.339-.032v-1.196q-.095-.021-.286-.042-.191-.021-.349-.021-.222 0-.423.032-.191.021-.339.095-.148.074-.233.201-.085.127-.085.318 0 .37.243.519.254.138.688.138zm-.127-4.615q.699 0 1.164.159.466.159.741.455.286.296.402.72.116.423.116.942v3.281q-.339.074-.942.169-.603.106-1.461.106-.54 0-.984-.095-.434-.095-.751-.307-.318-.222-.487-.572-.169-.349-.169-.857 0-.487.191-.826.201-.339.529-.54.328-.201.751-.286.423-.095.878-.095.307 0 .54.032.243.021.392.064v-.148q0-.402-.243-.646-.243-.243-.847-.243-.402 0-.794.064-.392.053-.677.159l-.201-1.27q.138-.042.339-.085.212-.053.455-.085.243-.042.508-.064.275-.032.55-.032zm6.912 2.763q0-.762-.201-1.08-.191-.318-.667-.318-.148 0-.307.021-.159.011-.307.032v4.297h-1.577v-5.377q.201-.053.466-.106.275-.064.572-.106.307-.053.624-.074.318-.032.624-.032.603 0 .974.159.381.148.624.36.339-.243.773-.381.445-.138.815-.138.667 0 1.09.191.434.18.688.519.254.339.349.804.095.466.095 1.037v3.143h-1.577v-2.953q0-.762-.201-1.08-.191-.318-.667-.318-.127 0-.36.064-.222.064-.37.159.074.243.095.519.021.265.021.572v3.038h-1.577zm7.641 2.953h-1.577v-5.567h1.577zm.148-7.176q0 .434-.286.688-.275.243-.656.243-.381 0-.667-.243-.275-.254-.275-.688 0-.434.275-.677.286-.254.667-.254.381 0 .656.254.286.243.286.677z"/><use xlink:href="#B" x="53.258"/><use xlink:href="#C" x="53.258"/><path d="M151.937 38.697q0 .656-.191 1.207-.191.54-.55.931-.36.381-.868.593-.497.212-1.122.212-.614 0-1.122-.212-.497-.212-.857-.593-.36-.392-.561-.931-.201-.55-.201-1.207 0-.656.201-1.196.212-.54.572-.921.37-.381.868-.593.508-.212 1.101-.212.603 0 1.101.212.508.212.868.593.36.381.561.921.201.54.201 1.196zm-1.609 0q0-.73-.296-1.143-.286-.423-.826-.423-.54 0-.836.423-.296.413-.296 1.143 0 .73.296 1.164.296.423.836.423.54 0 .826-.423.296-.434.296-1.164z"/><path d="M187.5 0C83.945 0 0 83.945 0 187.5S83.945 375 187.5 375 375 291.055 375 187.5 291.055 0 187.5 0" clip-path="url(#A)" transform="matrix(.0469 0 0 .0469 46.083668 29.182871)"/></g></svg>
