<svg xmlns="http://www.w3.org/2000/svg" xmlns:xlink="http://www.w3.org/1999/xlink" width="512" zoomAndPan="magnify" viewBox="0 0 384 383.999986" height="512" preserveAspectRatio="xMidYMid meet" version="1.0"><defs><clipPath id="id1"><path d="M 83.59375 83.59375 L 300.34375 83.59375 L 300.34375 300.34375 L 83.59375 300.34375 Z M 83.59375 83.59375 " clip-rule="nonzero"/></clipPath><clipPath id="id2"><path d="M 80.703125 80.703125 L 303.234375 80.703125 L 303.234375 303.234375 L 80.703125 303.234375 Z M 234.960938 119.589844 C 237.574219 120.527344 239.640625 121.457031 240.730469 122.832031 C 241.972656 124.398438 242.085938 126.523438 242.78125 129.445312 C 242.972656 130.265625 243.238281 131.3125 243.558594 132.257812 C 243.953125 133.429688 244.605469 134.054688 245.269531 134.210938 C 246.203125 134.433594 247.175781 133.738281 247.539062 132.34375 C 248.015625 130.503906 248.691406 127.273438 249.230469 124.257812 C 250.324219 118.117188 249.242188 114.941406 244.109375 111.371094 C 240.191406 108.644531 234.859375 106.824219 230.796875 103.71875 C 229.828125 102.976562 228.972656 102.152344 227.945312 101.457031 C 225.175781 99.589844 221.191406 99.183594 217.140625 99.933594 C 211.167969 101.035156 207.519531 103.6875 204.757812 107.285156 C 200.371094 112.992188 199.085938 121.128906 200.71875 129.644531 C 204.257812 148.09375 220.085938 159.019531 228.363281 172.820312 C 229.40625 174.554688 231.933594 179.804688 232.277344 185.222656 C 232.523438 189.132812 231.566406 194.285156 227.441406 195.824219 C 224.644531 196.863281 222.023438 194.164062 220.742188 189.773438 C 217.542969 178.796875 216.027344 173.785156 205.945312 166.992188 C 187.957031 154.875 160.917969 159.226562 143.472656 170.097656 C 135.917969 174.804688 129.179688 180.988281 123.707031 187.949219 C 114.046875 200.25 107.609375 217.589844 107.609375 233.324219 C 107.609375 236.363281 107.886719 238.539062 108.890625 234.644531 C 110.210938 229.527344 112.148438 224.773438 114.816406 220.566406 C 116.738281 217.535156 118.839844 214.742188 122.339844 212.558594 C 123.835938 211.621094 125.613281 210.679688 125.964844 210.914062 C 126.117188 211.019531 125.507812 211.554688 124.65625 212.351562 C 120.957031 215.8125 118.195312 221.59375 117.027344 226.429688 C 116.605469 228.175781 116.957031 228.070312 117.824219 226.644531 C 118.929688 224.828125 120.828125 221.820312 123.449219 219.320312 C 125.851562 217.035156 129.042969 215.160156 131.730469 214.75 C 138.878906 213.648438 149.328125 218.839844 157.933594 224.167969 C 161.683594 226.488281 161.367188 226.382812 160.675781 230.742188 C 160.425781 232.335938 160.515625 233.773438 161.078125 234.988281 C 161.210938 235.277344 161.238281 235.3125 161.050781 235.59375 L 144.023438 261.113281 C 141.753906 264.523438 136.3125 267.992188 138.050781 272.226562 C 138.613281 273.585938 139.914062 274.332031 142.652344 274.492188 C 152.054688 275.042969 166.574219 280.035156 178.351562 284.324219 L 178.140625 286.378906 C 177.789062 289.789062 177.347656 290.484375 176.824219 293.285156 C 176.566406 294.6875 176.699219 296.09375 177.074219 297.492188 C 177.757812 300.035156 177.878906 300.660156 178.347656 303.238281 C 180.152344 318.957031 180.195312 337.175781 181.316406 353.066406 C 181.464844 355.167969 180.914062 357.128906 180.074219 358.46875 C 178.980469 360.210938 180.453125 361.949219 182.28125 362.496094 C 187.429688 364.039062 191.042969 365.082031 195.910156 366.929688 L 196.78125 367.253906 C 201.046875 368.816406 199.6875 367.351562 198.511719 366.433594 C 195.273438 363.90625 198.09375 362.828125 200.890625 362.847656 C 202.566406 362.859375 204.03125 362.945312 205.398438 363.058594 C 208.882812 363.347656 208.5 362.53125 205.574219 362.003906 C 204.042969 361.726562 201.933594 361.421875 200.710938 360.378906 C 199.941406 359.71875 200.015625 359.230469 200.441406 358.875 C 201.019531 358.394531 202.238281 358.15625 202.914062 358.066406 C 204.1875 357.898438 204.683594 357.816406 204.632812 357.664062 C 204.585938 357.539062 204.234375 357.335938 202.890625 357.207031 C 201.816406 357.105469 200.402344 357.046875 199.136719 357.105469 C 196.695312 357.214844 193.25 357.859375 190.570312 357.660156 C 187.8125 357.457031 185.703125 356.207031 185.152344 351.75 L 182.628906 303.964844 C 182.398438 300.792969 182.488281 300.1875 182.648438 297.621094 C 182.726562 296.382812 182.703125 294.988281 182.613281 293.78125 C 182.378906 290.511719 182.3125 288.570312 182.492188 285.84375 L 187.820312 287.796875 C 192.175781 289.375 195.226562 290.960938 196.789062 295.132812 C 198.210938 298.933594 197.089844 303.785156 196.179688 307.679688 C 196.179688 307.679688 197.332031 307.074219 198.449219 306.566406 C 200.878906 305.464844 201.792969 306.480469 202.089844 309.050781 C 202.429688 311.980469 203.140625 314.980469 203.839844 316.695312 C 204.878906 319.234375 204.796875 317.929688 204.714844 316.128906 C 204.644531 314.597656 204.5625 312.257812 204.5625 309.351562 C 204.5625 307.292969 204.710938 305.320312 204.792969 303.410156 C 204.980469 298.910156 204.816406 294.753906 201.566406 290.59375 C 198.046875 286.09375 194.144531 285.785156 189.199219 284.175781 L 182.820312 282.070312 L 186.566406 248.78125 C 186.714844 247.25 186.761719 245.6875 188.304688 245.03125 C 190.316406 244.179688 192.4375 242.457031 194.734375 239.78125 C 196.027344 238.273438 197.207031 236.980469 198.464844 236.128906 C 204.144531 232.265625 210.308594 233.703125 218.328125 229.800781 C 234.132812 222.101562 251.464844 206.988281 246.707031 182.992188 C 243.175781 165.164062 225.355469 151.109375 222.371094 148.242188 C 217.917969 143.960938 208.152344 135.824219 209.867188 123.148438 C 210.75 116.613281 213.144531 114.429688 219.527344 115.917969 C 224.960938 117.183594 229.515625 117.632812 234.964844 119.589844 Z M 165.746094 238.597656 L 147.535156 264.132812 C 145.234375 267.351562 144.515625 269.171875 148.863281 270.628906 L 178.722656 280.703125 L 182.058594 248.289062 C 182.109375 247.828125 182.183594 247.320312 182.238281 246.808594 C 182.394531 245.371094 182.304688 245.066406 181.136719 244.300781 C 179.410156 243.167969 177.710938 241.351562 175.988281 238.921875 C 173.867188 235.929688 173.113281 236.769531 169.359375 238.011719 C 168.375 238.339844 167.335938 238.46875 166.3125 238.371094 C 166.050781 238.347656 165.902344 238.378906 165.746094 238.597656 " clip-rule="nonzero"/></clipPath></defs><rect x="-38.4" width="460.8" fill="#ffffff" y="-38.399999" height="460.799983" fill-opacity="1"/><rect x="-38.4" width="460.8" fill="#ffffff" y="-38.399999" height="460.799983" fill-opacity="1"/><rect x="-38.4" width="460.8" fill="#ffffff" y="-38.399999" height="460.799983" fill-opacity="1"/><rect x="-38.4" width="460.8" fill="#ffffff" y="-38.399999" height="460.799983" fill-opacity="1"/><rect x="-38.4" width="460.8" fill="#ff00ff" y="-38.399999" height="460.799983" fill-opacity="1"/><g clip-path="url(#id1)"><g clip-path="url(#id2)"><path fill="#ffffff" d="M 191.96875 83.59375 C 132.117188 83.59375 83.59375 132.117188 83.59375 191.96875 C 83.59375 251.824219 132.117188 300.34375 191.96875 300.34375 C 251.824219 300.34375 300.34375 251.824219 300.34375 191.96875 C 300.34375 132.117188 251.824219 83.59375 191.96875 83.59375 " fill-opacity="1" fill-rule="nonzero"/></g></g></svg>